# Blender v2.80 (sub 75) OBJ File: 'myMan.blend'
# www.blender.org
o Arm_R2.001_Cube.015
v 0.433584 -1.682804 -0.568289
v 0.433584 -1.682804 0.568289
v -0.433584 -1.682804 -0.568289
v -0.433584 -1.682804 0.568289
v 0.433584 0.000000 -0.568289
v -0.433584 0.000000 0.568289
v 0.433584 0.000000 0.568289
v -0.433584 0.000000 -0.568289
vt 0.460865 0.879673
vt 0.537749 0.879673
vt 0.537749 0.981793
vt 0.460865 0.981793
vt 0.683082 0.692900
vt 0.683082 0.541702
vt 0.759966 0.541702
vt 0.759966 0.692900
vt 0.577871 0.534142
vt 0.577870 0.382944
vt 0.678640 0.382944
vt 0.678640 0.534142
vt 0.103289 0.575418
vt 0.103289 0.726616
vt 0.002519 0.726616
vt 0.002519 0.575418
vt 0.844538 0.646758
vt 0.844538 0.544638
vt 0.921422 0.544638
vt 0.921422 0.646758
vt 0.683082 0.375384
vt 0.683082 0.224186
vt 0.759966 0.224186
vt 0.759966 0.375384
vn 0.0000 -1.0000 0.0000
vn 0.0000 -0.0000 -1.0000
vn 1.0000 0.0000 0.0000
vn -1.0000 0.0000 0.0000
vn 0.0000 1.0000 0.0000
vn 0.0000 -0.0000 1.0000
s off
f 3/1/1 1/2/1 2/3/1 4/4/1
f 3/5/2 8/6/2 5/7/2 1/8/2
f 1/9/3 5/10/3 7/11/3 2/12/3
f 4/13/4 6/14/4 8/15/4 3/16/4
f 8/17/5 6/18/5 7/19/5 5/20/5
f 2/21/6 7/22/6 6/23/6 4/24/6
