# Blender v2.80 (sub 75) OBJ File: 'myMan.blend'
# www.blender.org
o Arm_L1.001_Cube.016
v -0.867169 0.470987 -0.568289
v -0.867169 0.470987 0.568289
v 0.000000 0.470987 -0.568289
v 0.000000 0.470987 0.568289
v -0.867169 -0.470986 -0.568289
v 0.000000 -0.470986 0.568289
v -0.867169 -0.470986 0.568289
v 0.000000 -0.470986 -0.568289
vt 0.844538 0.325079
vt 0.844538 0.222959
vt 0.921422 0.222959
vt 0.921422 0.325079
vt 0.786461 0.214256
vt 0.709577 0.214256
vt 0.709577 0.129620
vt 0.786461 0.129620
vt 0.872572 0.699233
vt 0.872572 0.801354
vt 0.789056 0.801354
vt 0.789056 0.699233
vt 0.872572 0.806460
vt 0.872572 0.908580
vt 0.789056 0.908580
vt 0.789056 0.806460
vt 0.840694 0.689671
vt 0.763810 0.689671
vt 0.763810 0.605035
vt 0.840694 0.605035
vt 0.917350 0.002553
vt 0.917350 0.104673
vt 0.840466 0.104673
vt 0.840466 0.002553
vn 0.0000 1.0000 0.0000
vn 0.0000 0.0000 1.0000
vn 1.0000 0.0000 0.0000
vn -1.0000 -0.0000 0.0000
vn 0.0000 0.0000 -1.0000
vn 0.0000 -1.0000 0.0000
s off
f 1/1/1 2/2/1 4/3/1 3/4/1
f 7/5/2 6/6/2 4/7/2 2/8/2
f 6/9/3 8/10/3 3/11/3 4/12/3
f 5/13/4 7/14/4 2/15/4 1/16/4
f 8/17/5 5/18/5 1/19/5 3/20/5
f 8/21/6 6/22/6 7/23/6 5/24/6
