# Blender v2.80 (sub 75) OBJ File: 'myMan.blend'
# www.blender.org
o Arm_L2.001_Cube.012
v -0.433584 -1.682804 -0.568289
v -0.433584 -1.682804 0.568289
v 0.433584 -1.682804 -0.568289
v 0.433584 -1.682804 0.568289
v -0.433584 0.000000 -0.568289
v 0.433584 0.000000 0.568289
v -0.433584 0.000000 0.568289
v 0.433584 0.000000 -0.568289
vt 0.953466 0.806460
vt 0.953466 0.908580
vt 0.876582 0.908580
vt 0.876582 0.806460
vt 0.759966 0.534142
vt 0.683082 0.534142
vt 0.683082 0.382944
vt 0.759966 0.382944
vt 0.577870 0.541702
vt 0.678640 0.541702
vt 0.678640 0.692900
vt 0.577870 0.692900
vt 0.678640 0.375384
vt 0.577871 0.375384
vt 0.577870 0.224186
vt 0.678640 0.224186
vt 0.921422 0.432306
vt 0.844538 0.432306
vt 0.844538 0.330185
vt 0.921422 0.330185
vt 0.290423 0.726616
vt 0.213539 0.726616
vt 0.213539 0.575418
vt 0.290423 0.575418
vn 0.0000 -1.0000 0.0000
vn 0.0000 -0.0000 -1.0000
vn -1.0000 0.0000 0.0000
vn 1.0000 0.0000 0.0000
vn 0.0000 1.0000 0.0000
vn 0.0000 -0.0000 1.0000
s off
f 3/1/1 4/2/1 2/3/1 1/4/1
f 3/5/2 1/6/2 5/7/2 8/8/2
f 1/9/3 2/10/3 7/11/3 5/12/3
f 4/13/4 3/14/4 8/15/4 6/16/4
f 8/17/5 5/18/5 7/19/5 6/20/5
f 2/21/6 4/22/6 6/23/6 7/24/6
