# Blender v2.80 (sub 75) OBJ File: 'myMan.blend'
# www.blender.org
o Leg_R2.001_Cube.018
v 0.433584 -1.351522 -0.568289
v 0.433584 -1.351522 0.568289
v -0.433584 -1.351522 -0.568289
v -0.433584 -1.351522 0.568289
v 0.433584 0.000000 -0.568289
v -0.433584 0.000000 0.568289
v 0.433584 0.000000 0.568289
v -0.433584 0.000000 -0.568289
vt 0.998078 0.104673
vt 0.921194 0.104673
vt 0.921194 0.002553
vt 0.998078 0.002553
vt 0.840694 0.350946
vt 0.840694 0.472379
vt 0.763810 0.472379
vt 0.763810 0.350946
vt 0.472062 0.753963
vt 0.472062 0.632531
vt 0.572832 0.632531
vt 0.572832 0.753963
vt 0.629446 0.124469
vt 0.629446 0.003036
vt 0.730216 0.003036
vt 0.730216 0.124469
vt 0.078806 0.733432
vt 0.078806 0.854865
vt 0.001922 0.854865
vt 0.001922 0.733432
vt 0.001922 0.860454
vt 0.078806 0.860454
vt 0.078806 0.962574
vt 0.001922 0.962574
vn 0.0000 1.0000 0.0000
vn 0.0000 0.0000 -1.0000
vn 1.0000 -0.0000 0.0000
vn -1.0000 -0.0000 0.0000
vn 0.0000 0.0000 1.0000
vn 0.0000 -1.0000 0.0000
s off
f 1/1/1 3/2/1 4/3/1 2/4/1
f 7/5/2 2/6/2 4/7/2 6/8/2
f 6/9/3 4/10/3 3/11/3 8/12/3
f 5/13/4 1/14/4 2/15/4 7/16/4
f 8/17/5 3/18/5 1/19/5 5/20/5
f 8/21/6 5/22/6 7/23/6 6/24/6
